<?xml version="1.0" encoding="UTF-8"?>
<svg width="24px" height="24px" viewBox="0 0 24 24" version="1.1" xmlns="http://www.w3.org/2000/svg" xmlns:xlink="http://www.w3.org/1999/xlink">
    <title>logo-line</title>
    <defs>
        <rect id="path-1" x="0" y="0" width="24" height="24"></rect>
        <linearGradient x1="66.0425981%" y1="85.5140132%" x2="35.2777197%" y2="15.2482871%" id="linearGradient-3">
            <stop stop-color="#F3DEFF" offset="0%"></stop>
            <stop stop-color="#DBA7FD" offset="51.4362416%"></stop>
            <stop stop-color="#5ADCF9" offset="100%"></stop>
        </linearGradient>
        <linearGradient x1="66.0425981%" y1="85.5140132%" x2="35.2777197%" y2="15.2482871%" id="linearGradient-4">
            <stop stop-color="#999999" offset="0%"></stop>
            <stop stop-color="#999999" offset="51.4362416%"></stop>
            <stop stop-color="#999999" offset="100%"></stop>
        </linearGradient>
    </defs>
    <g id="嵌入组件样式" stroke="none" stroke-width="1" fill="none" fill-rule="evenodd">
        <g transform="translate(-769, -21)" id="logo-line">
            <g transform="translate(769, 21)">
                <mask id="mask-2" fill="white">
                    <use xlink:href="#path-1"></use>
                </mask>
                <g id="蒙版"></g>
                <g id="编组-2" mask="url(#mask-2)" fill-rule="nonzero">
                    <g transform="translate(2, 3)">
                        <path d="M11.2961521,2.23567035 C12.1147128,2.85101033 12.9381804,3.02606207 13.8482214,2.79002157 C14.1196126,2.71962986 14.4098508,2.77759372 14.6327378,2.94669839 C15.3009345,3.45366008 16.1200826,3.72947191 17.117018,3.77159917 C17.4721143,3.7911128 17.8101927,4.01343816 17.9329907,4.38657623 C18.3073854,5.52422371 18.9832063,6.65208624 19.9684415,7.77048201 C20.0860739,7.9040131 20.1603735,8.06867242 20.181775,8.24326154 L20.4073101,10.0831325 L20.3621385,10.0878061 C20.4401746,10.9228198 20.3543028,11.8426307 20.0827494,12.8560821 C18.6871653,18.0644727 13.1317773,21.1012887 7.67444308,19.6390004 C2.32873138,18.2066213 -0.939989078,12.9886206 0.240221815,7.8804745 L0.27577673,7.97959361 C0.55235567,8.68651359 1.10768163,9.27426598 1.86500428,9.56337914 L1.81212038,9.54115028 C1.65950476,12.0425701 2.75222976,14.4677571 4.67447793,16.1221983 C4.54589816,15.6953175 4.45965101,15.3639552 4.41409623,15.1194831 C4.34572971,14.7525907 4.30688983,14.3046342 4.29463507,13.7696225 C4.28347568,13.2824314 4.67631888,12.8844464 5.17207492,12.880698 C5.66783096,12.8769497 6.07876712,13.2688574 6.08992652,13.7560485 C6.094857,13.971301 6.10458226,14.1658772 6.11877762,14.3391159 L6.132,14.487731 L6.14509978,14.5686928 C6.4094669,16.0723626 6.98935826,16.8456897 7.88477388,16.8886742 L8.00154443,16.8887437 L8.12993734,16.8818045 C8.93001154,16.7966615 9.81480565,16.0377612 10.7843196,14.6051038 C11.0855429,14.1062128 11.3241182,13.5502159 11.5016356,12.934893 C11.6260089,12.5037821 12.0590693,12.2410996 12.5012034,12.3092266 L12.6117526,12.3332442 C13.0901156,12.4679996 13.3686789,12.9558485 13.2339412,13.4228854 C12.9555589,14.3878328 12.5474965,15.2512455 12.0090166,16.0091337 C11.3808074,16.893312 10.6685124,17.6342339 9.87251912,18.2284159 C13.7583387,18.4724836 17.3494435,16.1003369 18.343604,12.3900795 C18.439954,12.0304964 18.5076995,11.6895546 18.5479853,11.3658533 L18.5610188,11.2279945 L18.4603928,11.2586066 C17.6082534,11.4920644 16.668459,11.49614 15.6939465,11.2350202 C14.8810021,11.0171924 14.1324146,10.6500685 13.4887553,10.1633327 L13.2946045,10.007425 L13.1457216,10.025061 C12.3162228,10.0987416 11.4529646,10.0433481 10.5959355,9.85792974 L10.1681251,9.75438079 C9.20826096,9.49718597 8.31641867,9.08931391 7.54043284,8.56044327 C7.77845389,8.28780725 7.96161439,7.97494893 8.0843559,7.64029727 L8.09851432,7.59491405 L8.18450385,7.56266678 C8.38379411,7.4788656 8.57402658,7.37243293 8.75111699,7.24526697 C9.3000834,7.59054569 9.93180501,7.86951118 10.623512,8.05485352 C11.7739607,8.36311531 12.9101983,8.36412307 13.8838057,8.11318572 C14.4292133,8.7689039 15.2125307,9.28447738 16.1493335,9.53549292 C17.0562342,9.77849622 17.8563014,9.67930425 18.5161257,9.34410397 C18.4803552,9.13337614 18.4269245,8.92767023 18.355842,8.72780316 L18.277304,8.52620709 C17.6358067,7.74680239 17.116351,6.9521613 16.7206623,6.14235255 L16.6513924,5.99261542 L16.4917669,6.06624327 C15.7345569,6.38235521 14.9075266,6.44365999 14.035728,6.24812131 L13.7664482,6.17896455 L13.6498538,6.21486792 C12.3405798,6.56480558 10.8448182,6.17599696 9.94422805,5.25108046 C10.0313121,4.62375274 9.90679853,3.99894697 9.61010178,3.46558024 L9.63183458,3.42405294 C9.77128346,3.11663622 9.85789456,2.78625848 9.88590964,2.44865425 L9.89486959,2.26120034 C10.0708599,2.23231203 10.2393737,2.1848029 10.400854,2.11917013 C10.698046,1.99837816 11.0396182,2.04282507 11.2961521,2.23567035 Z" id="形状结合备份" fill="#999999"></path>
                        <path d="M21.9867835,0.758839755 C22.0603639,1.24001889 21.721574,1.68595699 21.2300749,1.75487038 L17.0865113,2.33458829 L15.8409566,4.59877857 C15.5204272,4.61084769 15.1774491,4.55157297 14.8038998,4.42161461 C14.5897708,4.3471188 14.3552904,4.35428667 14.1473847,4.44168375 C14.0437974,4.4852286 13.9354722,4.51812931 13.8244961,4.54107129 L15.713405,1.10621064 C15.8476829,0.862273155 16.0922248,0.695387482 16.3731022,0.65600549 L20.9636165,0.0123665884 C21.4551156,-0.056546801 21.913203,0.27766062 21.9867835,0.758839755 Z" id="形状结合备份-2" fill="#999999"></path>
                        <path d="M5.98475862,0.207095844 C6.43024455,0.3598924 6.65917797,0.826168301 6.49609574,1.24855222 L5.95110116,2.65778555 L7.3554002,2.03624326 C7.78572288,1.84561621 8.29644871,2.0207893 8.49613828,2.42750332 C8.69582784,2.83421733 8.50886277,3.31845794 8.07854009,3.50908499 L6.76710116,4.08878555 L8.14962814,4.56369659 C8.59511407,4.71649315 8.8240475,5.18276905 8.66096527,5.60515296 C8.49788303,6.02753688 8.00454106,6.24608062 7.55905513,6.09328406 L6.17110116,5.61678555 L6.80432415,6.90710367 C7.00401372,7.31381768 6.81704864,7.79805829 6.38672597,7.98868534 C5.95640329,8.17931239 5.44567746,8.0041393 5.24598789,7.59742528 L4.57310116,6.22778555 L4.01568908,7.67281959 C3.85260684,8.0952035 3.35926487,8.31374724 2.91377894,8.16095068 C2.46829301,8.00815413 2.23935958,7.54187823 2.40244182,7.11949431 L2.91210116,5.79678555 L1.5335278,6.40843578 C1.10320513,6.59906283 0.592479297,6.42388973 0.392789729,6.01717572 C0.193100162,5.61046171 0.380065237,5.1262211 0.810387913,4.93559405 L2.28210116,4.28278555 L0.783416648,3.7693179 C0.337930719,3.61652134 0.108997292,3.15024544 0.272079527,2.72786152 C0.435161761,2.30547761 0.928503734,2.08693387 1.37398966,2.23973043 L2.86610116,2.75078555 L2.20880035,1.41149003 C2.00911078,1.00477602 2.19607585,0.520535408 2.62639853,0.329908358 C3.0567212,0.139281307 3.56744704,0.314454401 3.7671366,0.721168413 L4.38610116,1.98078555 L4.88284848,0.69522694 C5.04593072,0.272843024 5.53927269,0.0542992879 5.98475862,0.207095844 Z" id="形状结合备份-3" fill="url(#linearGradient-4)"></path>
                    </g>
                </g>
            </g>
        </g>
    </g>
</svg>