<svg t="1741660779586" class="icon" viewBox="0 0 1024 1024" fill="currentColor" version="1.1" width="1em" height="1em" xmlns="http://www.w3.org/2000/svg" p-id="1417"><path d="M548.92307656 859.07692344H105.84615406v-18.46153875c0-162.46153875 118.15384594-310.15384594 280.61538469-324.92307656 92.30769188-11.07692344 177.23076937 22.15384594 240 77.53846125 14.76923062 11.07692344 33.23076938 11.07692344 48 0 18.46153875-14.76923062 18.46153875-40.61538469 0-55.38461532-33.23076938-29.53846125-70.15384594-51.69230812-110.76923063-66.46153875 62.76923062-40.61538469 103.38461531-110.76923063 103.38461532-188.30769187 0-125.53846125-103.38461531-228.92307656-228.9230775-228.9230775s-228.92307656 96-228.92307657 221.53846219c0 73.84615406 36.92307656 140.30769188 92.30769188 180.92307656C142.76923062 512 32 667.07692344 32 840.61538469v55.38461531c0 22.15384594 18.46153875 36.92307656 36.92307656 36.92307656h480c22.15384594 0 36.92307656-14.76923062 36.9230775-36.92307656s-14.76923062-36.92307656-36.9230775-36.92307656zM283.07692344 275.69230812c0-84.92307656 70.15384594-155.07692344 155.0769225-155.07692343s155.07692344 70.15384594 155.07692343 155.07692343c0 84.92307656-70.15384594 155.07692344-155.07692343 155.0769225S283.07692344 360.61538469 283.07692344 275.69230812z" p-id="1418"></path><path d="M955.07692344 752h-110.76923156v-110.76923063c0-22.15384594-14.76923062-36.92307656-36.92307657-36.9230775s-36.92307656 14.76923062-36.92307656 36.9230775v110.76923063h-110.76923062c-22.15384594 0-36.92307656 14.76923062-36.9230775 36.92307656s14.76923062 36.92307656 36.9230775 36.9230775h110.76923062v110.76923063c0 22.15384594 14.76923062 36.92307656 36.92307656 36.92307656s36.92307656-14.76923062 36.92307657-36.92307656v-110.76923063h110.76923156c22.15384594 0 36.92307656-14.76923062 36.92307656-36.9230775s-14.76923062-36.92307656-36.92307656-36.92307656z" p-id="1419"></path></svg>