<svg t="1745218348794" class="icon" viewBox="0 0 1024 1024" version="1.1" xmlns="http://www.w3.org/2000/svg" p-id="2294" fill="currentColor" width="1em" height="1em"><path d="M85.312 213.312c0-23.552 19.136-42.624 42.688-42.624h768A42.688 42.688 0 1 1 896 256H128a42.688 42.688 0 0 1-42.688-42.688zM533.312 729.792c8.64 32 24.32 61.76 45.76 87.04l49.92-5.504a46.208 46.208 0 0 1 47.36 27.392l22.208 50.752c30.208 6.848 61.44 7.296 91.776 1.28l22.784-52.032a46.208 46.208 0 0 1 47.36-27.392l54.848 6.016c20.48-24 35.712-51.968 44.672-82.24l-31.424-43.2a46.208 46.208 0 0 1 0-54.4l28.672-39.424a224.32 224.32 0 0 0-52.288-84.864l-44.48 4.864a46.208 46.208 0 0 1-47.36-27.392l-16.768-38.336a221.568 221.568 0 0 0-103.872 1.472l-16.128 36.864a46.208 46.208 0 0 1-47.36 27.392l-39.68-4.352c-24.512 25.216-42.88 55.808-53.376 89.408l24.96 34.368a46.208 46.208 0 0 1 0 54.4l-27.52 37.888z m288-58.88c0 41.216-33.088 74.688-73.92 74.688a74.304 74.304 0 0 1-73.92-74.688c0-41.216 33.088-74.688 73.92-74.688a74.24 74.24 0 0 1 73.984 74.688zM85.312 512c0-23.552 19.136-42.688 42.688-42.688h256a42.688 42.688 0 1 1 0 85.376H128A42.688 42.688 0 0 1 85.312 512zM85.312 810.688c0-23.552 19.136-42.688 42.688-42.688h256a42.688 42.688 0 0 1 0 85.312H128a42.688 42.688 0 0 1-42.688-42.624z" p-id="2295"></path></svg>