<svg t="1744772811005" class="icon" viewBox="0 0 1024 1024" version="1.1" xmlns="http://www.w3.org/2000/svg" p-id="8575" width="1em" height="1em"><path d="M99.17174518 448.41293749l359.46738727-359.38971497q48.3121683-48.3121683 116.58611673-48.3121683 68.35162075 0 116.66378904 48.3121683t48.3121683 116.58611674q0 9.08765867-0.85439527 17.86462816 8.3109357-0.77672297 16.8548883-0.77672297 69.36136059 0 118.37257956 48.93354666 48.93354667 49.08889125 48.93354667 118.37257956t-48.93354667 118.29490725l-327.31105659 327.3110566q-5.98076682 5.98076682 0 11.96153363l69.36136059 69.3613606a36.97201303 36.97201303 0 0 1-52.27345541 52.2734554l-69.36136059-69.36136059q-24.07841185-24.07841185-24.07841186-58.25422222t24.07841186-58.25422223l327.31105659-327.31105659q27.3406483-27.3406483 27.3406483-66.02145185t-27.3406483-66.02145185q-27.41832059-27.41832059-66.02145185-27.4183206-38.75847585 0-66.09912415 27.4183206l-20.97152 20.8938477L418.79324445 595.44659437a36.97201303 36.97201303 0 0 1-52.19578312-0.07767229l-0.23301688-0.15534459a36.73899615 36.73899615 0 0 1 0.15534458-52.04043852L618.41104592 291.04886519l21.1268646-21.1268646q26.64159763-26.71926992 26.64159763-64.39033362t-26.64159763-64.31266133q-26.71926992-26.71926992-64.39033363-26.71926994t-64.31266134 26.71926994L151.44520059 500.68639289a36.97201303 36.97201303 0 0 1-52.27345541-52.2734554z m688.25421749-35.7292563L514.33016889 686.01249185q-48.3121683 48.3121683-116.66378904 48.3121683t-116.66378903-48.3121683q-48.3121683-48.3121683-48.3121683-116.66378903t48.3121683-116.66378904l273.17346607-273.09579378a36.97201303 36.97201303 0 0 1 52.19578311 52.19578313L333.35371852 504.88069689q-26.64159763 26.71926992-26.64159763 64.39033363t26.64159763 64.39033363q26.71926992 26.64159763 64.39033363 26.64159763t64.31266133-26.64159763l273.17346607-273.17346607a36.97201303 36.97201303 0 0 1 52.27345542 52.27345541z" fill="currentColor" p-id="8576"></path></svg>