<svg t="1742890760319" class="icon" viewBox="0 0 1024 1024" version="1.1" xmlns="http://www.w3.org/2000/svg" p-id="2217" width="1em" height="1em"><path d="M902.2277075 247.03322656L547.03889655 41.59969719c-21.59931938-12.47960719-48.47847281-12.47960719-69.59780811 0l-355.18881094 205.43352937c-21.59931938 11.99962219-34.55891156 35.03889655-34.55891156 59.518125v411.34704282c0 24.47922844 13.43957625 47.03851875 34.55891156 59.51812499l355.18881094 205.43352844a70.74977156 70.74977156 0 0 0 69.59780813 0l355.18881093-205.43352843c21.11933438-11.99962219 34.55891156-35.03889655 34.55891156-59.51812501V306.07136656c-0.479985-24.47922844-13.91956125-47.03851875-34.55891156-59.03814zM512 673.73978562c-19.67938031 0-35.99886563 15.83950125-35.99886563 35.51888063v190.07401312L194.72999375 737.57777469l319.66993031-188.15407313 332.6295225 176.15445094-299.03058093 174.23451095V708.77868125c0-19.67938031-16.31948625-35.03889655-35.99886563-35.03889563z m-353.74885689-321.58987031l167.03473877 63.35800406c9.11971313 3.35989406 18.71941031 2.87990906 27.35913749-0.95997 8.63972812-3.83987906 15.35951625-11.03965219 18.71941032-20.15936437a35.27888906 35.27888906 0 0 0-20.15936438-46.07854875L193.77002469 288.31192625l282.23110968-163.19485969v363.348555l-316.79002124 186.71411813-0.95997002-323.02982438z m389.74772252 133.91578126V125.11706656l286.07098874 163.67484469-151.19523656 101.75679469c-16.31948625 11.03965219-20.15936531 33.11895655-9.11971312 49.43844281s33.11895655 21.11933438 49.43844281 10.07968219l142.07552437-95.51699157 0.95997 299.51056594-318.22997625-167.99470876z" fill="#2c2c2c" p-id="2218"></path></svg>