<svg t="1741761006789" class="icon" viewBox="0 0 1024 1024" version="1.1" xmlns="http://www.w3.org/2000/svg" p-id="1301" width="1em" height="1em"><path d="M882.29018562 155.01271625L527.75480937 34.19106594C523.47701375 32.73035563 517.73850688 32 512 32s-11.47701375 0.73035563-15.75480937 2.19106594L141.70981438 155.01271625c-8.65992844 2.92142156-15.75480937 12.93772406-15.75480938 22.11933469v503.31920437c0 9.18161062 5.94717937 21.28464281 13.14639656 27.02314969L498.74926625 987.72220438c3.65177719 2.81708531 8.34691875 4.27779562 13.1463975 4.27779562s9.59895656-1.46071125 13.14639656-4.27779562l359.64786469-280.24779938c7.19921719-5.63417063 13.1463975-17.73720281 13.1463975-27.02314969V177.13205094c0.20867344-9.18161062-6.88620844-19.09357688-15.54613688-22.11933469zM822.92272625 660.41865031L512 902.68796844 201.07727375 660.41865031V214.27583938l310.92272625-106.00586907 310.92272625 106.00586907v446.14281093zM398.16889437 529.47636125l-80.86077562 80.86077562a8.37822 8.37822 0 0 0 0 11.79002344l35.47440469 35.47440469c3.23443125 3.23443125 8.55559219 3.23443125 11.79002343 0l80.86077563-80.86077563c58.1154225 36.62210625 135.74176687 29.63156156 186.3449625-20.97163406 58.74144094-58.74144094 58.74144094-153.89631562 0-212.63775656-58.74144094-58.74144094-153.89631562-58.74144094-212.63775656 0-50.60319562 50.60319562-57.59373937 128.33387719-20.97163407 186.3449625z m68.23606125-139.08053437c32.65732031-32.65732031 85.55591813-32.65732031 118.10890125 0 32.65732031 32.65732031 32.65732031 85.55591813 0 118.10890125-32.65732031 32.65732031-85.55591813 32.65732031-118.10890125 0s-32.65732031-85.45158094 0-118.10890125z" p-id="1302"></path></svg>