<?xml version="1.0" standalone="no"?><!DOCTYPE svg PUBLIC "-//W3C//DTD SVG 1.1//EN" "http://www.w3.org/Graphics/SVG/1.1/DTD/svg11.dtd"><svg class="icon" width="128px" height="128.00px" viewBox="0 0 1024 1024" version="1.1" xmlns="http://www.w3.org/2000/svg"><path d="M821.333333 774.741333c0-47.658667-41.344-89.301333-96-89.301333-54.656 0-96 41.642667-96 89.301333 0 47.701333 41.344 89.258667 96 89.258667 54.656 0 96-41.557333 96-89.258667zM352 512c0-36.522667-31.786667-69.12-74.666667-69.12s-74.666667 32.597333-74.666666 69.12c0 36.522667 31.786667 69.034667 74.666666 69.034667S352 548.522667 352 512z m360.533333-282.965333c0-36.522667-31.786667-69.034667-74.666666-69.034667s-74.666667 32.512-74.666667 69.034667c0 36.522667 31.786667 69.034667 74.666667 69.034666s74.666667-32.512 74.666666-69.034666z m64 0c0 75.093333-63.744 133.034667-138.666666 133.034666-31.317333 0-60.586667-10.197333-84.181334-27.434666l-144.256 136.661333a128.512 128.512 0 0 1 0.597334 79.36l202.666666 115.2a163.882667 163.882667 0 0 1 112.64-44.373333c86.698667 0 160 66.986667 160 153.258666 0 86.272-73.301333 153.258667-160 153.258667s-160-66.986667-160-153.258667c0-19.882667 3.882667-38.741333 10.965334-55.978666L376.234667 605.013333a141.738667 141.738667 0 0 1-98.901334 39.978667c-74.922667 0-138.666667-57.941333-138.666666-133.034667 0-75.093333 63.744-133.12 138.666666-133.12 37.12 0 71.466667 14.293333 96.725334 37.802667l137.258666-130.005333 1.066667-0.938667a128 128 0 0 1-13.184-56.704c0-75.093333 63.744-133.034667 138.666667-133.034667s138.666667 57.941333 138.666666 133.034667z" fill="currentColor" /></svg>