<?xml version="1.0" encoding="UTF-8"?>
<svg width="44px" height="44px" viewBox="0 0 44 44" version="1.1" xmlns="http://www.w3.org/2000/svg" xmlns:xlink="http://www.w3.org/1999/xlink">
    <title>logo</title>
    <defs>
        <radialGradient cx="56.5877622%" cy="27.6008178%" fx="56.5877622%" fy="27.6008178%" r="80.893598%" gradientTransform="translate(0.5659, 0.276), rotate(116.4925), scale(1, 0.9819), translate(-0.5659, -0.276)" id="radialGradient-1">
            <stop stop-color="#FFFFFF" offset="0%"></stop>
            <stop stop-color="#FFFFFF" offset="29.4307255%"></stop>
            <stop stop-color="#A3FFF9" offset="54.8432037%"></stop>
            <stop stop-color="#49FFF3" offset="100%"></stop>
        </radialGradient>
        <rect id="path-2" x="0" y="0" width="44" height="44" rx="22"></rect>
        <linearGradient x1="55.7049808%" y1="31.4276862%" x2="39.8502297%" y2="61.4505916%" id="linearGradient-4">
            <stop stop-color="#F1D9FF" offset="0%"></stop>
            <stop stop-color="#59DCF9" offset="100%"></stop>
        </linearGradient>
        <path d="M10.8869914,3.63042842 L11.0018491,4.7421838 L11.626814,3.95174437 C12.2654748,3.14162386 13.4427947,2.99557289 14.2564316,3.62553037 C15.0700684,4.25548786 15.2119146,5.42290173 14.5732538,6.23302223 L13.7888491,7.2271838 L15.1949681,7.07748164 C16.2239006,6.96787814 17.1437712,7.70618987 17.2495568,8.72654703 C17.3553423,9.74690419 16.6069838,10.6629183 15.5780514,10.7725218 L14.2738491,10.9111838 L15.2573956,11.6722069 C16.0710324,12.3021644 16.2128786,13.4695783 15.5742178,14.2796988 C14.9355569,15.0898193 13.7582371,15.2358702 12.9446002,14.6059128 L11.9438491,13.8311838 L12.0722018,15.0624083 C12.1779874,16.0827655 11.4296289,16.9987796 10.4006965,17.1083831 C9.371764,17.2179866 8.45189332,16.4796748 8.3461078,15.4593177 L8.22384907,14.2851838 L7.41776178,15.3095315 C6.77910097,16.119652 5.60178109,16.265703 4.78814422,15.6357455 C3.97450735,15.005788 3.83266122,13.8383742 4.47132203,13.0282537 L5.39384907,11.8571838 L4.04999473,12.0005084 C3.02106227,12.1101119 2.10119159,11.3718002 1.99540607,10.351443 C1.88962054,9.33108583 2.63797899,8.41507173 3.66691145,8.30546824 L4.66884907,8.1981838 L3.82869385,7.54793188 C3.01505698,6.91797439 2.87321086,5.75056052 3.51187166,4.94044002 C4.15053247,4.13031952 5.32785235,3.98426854 6.14148922,4.61422603 L7.31584907,5.5241838 L7.16089732,4.02733778 C7.0551118,3.00698062 7.80347025,2.09096652 8.83240271,1.98136303 C9.86133516,1.87175954 10.7812058,2.61007126 10.8869914,3.63042842 Z" id="path-5"></path>
        <radialGradient cx="50%" cy="40.7815252%" fx="50%" fy="40.7815252%" r="33.0476612%" gradientTransform="translate(0.5, 0.4078), scale(0.9911, 1), rotate(130.1511), scale(1, 2.1278), translate(-0.5, -0.4078)" id="radialGradient-7">
            <stop stop-color="#E0A7FE" offset="0%"></stop>
            <stop stop-color="#E1A9FE" stop-opacity="0" offset="100%"></stop>
        </radialGradient>
        <path d="M10.8869914,3.63042842 L11.0018491,4.7421838 L11.626814,3.95174437 C12.2654748,3.14162386 13.4427947,2.99557289 14.2564316,3.62553037 C15.0700684,4.25548786 15.2119146,5.42290173 14.5732538,6.23302223 L13.7888491,7.2271838 L15.1949681,7.07748164 C16.2239006,6.96787814 17.1437712,7.70618987 17.2495568,8.72654703 C17.3553423,9.74690419 16.6069838,10.6629183 15.5780514,10.7725218 L14.2738491,10.9111838 L15.2573956,11.6722069 C16.0710324,12.3021644 16.2128786,13.4695783 15.5742178,14.2796988 C14.9355569,15.0898193 13.7582371,15.2358702 12.9446002,14.6059128 L11.9438491,13.8311838 L12.0722018,15.0624083 C12.1779874,16.0827655 11.4296289,16.9987796 10.4006965,17.1083831 C9.371764,17.2179866 8.45189332,16.4796748 8.3461078,15.4593177 L8.22384907,14.2851838 L7.41776178,15.3095315 C6.77910097,16.119652 5.60178109,16.265703 4.78814422,15.6357455 C3.97450735,15.005788 3.83266122,13.8383742 4.47132203,13.0282537 L5.39384907,11.8571838 L4.04999473,12.0005084 C3.02106227,12.1101119 2.10119159,11.3718002 1.99540607,10.351443 C1.88962054,9.33108583 2.63797899,8.41507173 3.66691145,8.30546824 L4.66884907,8.1981838 L3.82869385,7.54793188 C3.01505698,6.91797439 2.87321086,5.75056052 3.51187166,4.94044002 C4.15053247,4.13031952 5.32785235,3.98426854 6.14148922,4.61422603 L7.31584907,5.5241838 L7.16089732,4.02733778 C7.0551118,3.00698062 7.80347025,2.09096652 8.83240271,1.98136303 C9.86133516,1.87175954 10.7812058,2.61007126 10.8869914,3.63042842 Z" id="path-8"></path>
    </defs>
    <g id="嵌入组件样式" stroke="none" stroke-width="1" fill="none" fill-rule="evenodd">
        <g transform="translate(-1746, -1015)" id="浮动">
            <g transform="translate(1682, 1013)">
                <g id="logo" transform="translate(64, 2)">
                    <mask id="mask-3" fill="white">
                        <use xlink:href="#path-2"></use>
                    </mask>
                    <use id="矩形" fill="url(#radialGradient-1)" xlink:href="#path-2"></use>
                    <g mask="url(#mask-3)">
                        <g transform="translate(3, 1)">
                            <path d="M14.5179761,11.9340824 C16.6601413,12.761124 18.4388472,12.7439263 19.8540939,11.8824893 C21.4493165,12.8164776 23.0376364,12.9403545 24.6190535,12.25412 C25.8842514,13.0025871 27.3386103,13.295693 28.9821301,13.1334377 C28.7371579,14.0802489 28.5447795,14.9538561 28.4049949,15.7542592 C22.5993376,15.755985 19.666622,15.7531246 19.6068482,15.7456779 C19.5470744,15.7382313 17.9074112,15.1478831 14.6878586,13.9746334 L14.5179761,11.9340824 Z" id="路径-3" stroke="#5B1602" stroke-width="1.95843851" fill="#FFFFFF" fill-rule="evenodd" stroke-linejoin="round" transform="translate(21.7501, 13.8186) rotate(8) translate(-21.7501, -13.8186)"></path>
                            <polyline id="吸管" stroke="#00DBFF" stroke-width="1.95843851" fill="none" stroke-linecap="round" stroke-linejoin="round" transform="translate(25.9455, 17.4885) rotate(8) translate(-25.9455, -17.4885)" points="19.6308997 27.361315 26.02375 9.47372082 32.260056 7.61574148"></polyline>
                            <path d="M9.14693878,15.6440152 C10.8140416,14.8587492 12.4289198,13.5544063 13.9915734,11.7309866 C15.1756279,13.5025292 16.836407,14.1620682 18.9739105,13.7096037 C20.0444853,15.1171689 22.3651816,15.4674979 23.956201,14.4720935 C25.8132623,14.8666656 27.3131044,14.3527484 28.4557275,12.9303419 C29.2817008,14.6861377 30.5514961,16.3393939 32.2651135,17.8901107 L33.0440432,19.8956484 L31.0637841,23.1491851 L14.3397682,23.231062 L7.02525493,20.0239255 L9.14693878,15.6440152 Z" id="路径-2" stroke="#5B1602" stroke-width="1.95843851" fill="#FFFFFF" fill-rule="evenodd" stroke-linejoin="round" transform="translate(20.0346, 17.481) rotate(8) translate(-20.0346, -17.481)"></path>
                            <path d="M30.7832082,17.6520864 C31.4361686,18.8483784 31.7625865,20.3918718 31.7625865,22.2508384 C31.7625865,25.9651548 30.2681631,29.3281437 27.8510627,31.7623525 C25.4364532,34.1940527 22.1008676,35.6986913 18.4161313,35.6986913 C14.731395,35.6986913 11.3958093,34.1940527 8.9811998,31.7623525 C6.5640994,29.3281437 5.06967607,25.9651548 5.06967607,22.2508384 C5.06967607,20.6142059 5.39449176,19.2273481 5.99012071,18.0655443 C6.28093236,18.4520581 6.62197692,18.7935479 7.01437254,19.077961 C7.79602745,19.6445141 8.78605478,19.9948171 10.0213171,19.9948171 C11.4189611,19.9948171 12.712477,19.6137347 13.7751006,18.9713604 C15.049459,19.6160855 16.5707268,19.9948171 18.2066142,19.9948171 C19.821096,19.9948171 21.323976,19.6259388 22.5877266,18.996994 C23.62827,19.626125 24.8755256,19.9948171 26.2177561,19.9948171 C27.5530224,19.9948171 28.6552952,19.60425 29.5280983,18.9623305 C30.0188999,18.6013612 30.438468,18.1582467 30.7832082,17.6520864 Z" id="形状结合" stroke="#5B1602" stroke-width="1.95843851" fill="#8C3201" fill-rule="evenodd" transform="translate(18.4161, 26.1434) rotate(15) translate(-18.4161, -26.1434)"></path>
                            <g id="线" stroke="none" stroke-width="1" fill="none" fill-rule="evenodd" transform="translate(17.1887, 31.0986) rotate(15) translate(-17.1887, -31.0986)translate(11.672, 25.7052)">
                                <path d="M10.4788319,0.211587155 C10.426725,2.23673267 10.0193188,4.02082227 9.25661325,5.56385595 C8.49390768,7.10688963 7.55610977,8.39249466 6.44321954,9.42067105" id="路径-5" stroke="#5B1602" stroke-width="1.95843851" transform="translate(8.461, 4.8161) rotate(-7) translate(-8.461, -4.8161)"></path>
                                <path d="M2.56656254,4.93380274 C2.25484678,5.8248744 1.96006139,6.51783456 1.6822064,7.01268322 C1.4350868,7.45279336 0.935426737,8.1746642 0.183226208,9.17829573" id="路径-5备份" stroke="#5B1602" stroke-width="1.95843851" transform="translate(1.3749, 7.056) scale(-1, 1) rotate(-5) translate(-1.3749, -7.056)"></path>
                                <path d="M4.40519391,8.19454026 C6.15853308,8.15387984 7.83905283,6.83081765 9.44675314,4.22535367 C11.0544535,1.61988969 10.2686193,3.42292754 7.0892506,9.63446723 L4.40519391,8.19454026 Z" id="路径-8" fill="#5B1602" transform="translate(7.3309, 6.3525) rotate(-15) translate(-7.3309, -6.3525)"></path>
                                <path d="M0.561476941,6.76886773 C1.45570949,8.37032642 3.10162287,8.48721583 5.49921707,7.11953594 C4.73509615,8.01523091 3.75991856,8.82463343 2.5736843,9.54774351 C1.72066211,8.71494167 1.13149787,8.0764001 0.806191581,7.63211881 C0.480885294,7.18783752 0.399313747,6.90008716 0.561476941,6.76886773 Z" id="路径-8" fill="#5B1602" transform="translate(2.9899, 8.1583) scale(-1, 1) rotate(-38) translate(-2.9899, -8.1583)"></path>
                            </g>
                            <g id="花" stroke="none" stroke-width="1" fill="none" fill-rule="evenodd" transform="translate(13.6023, 13.5043) rotate(-225) translate(-13.6023, -13.5043)translate(3.9799, 3.9595)">
                                <mask id="mask-6" fill="white">
                                    <use xlink:href="#path-5"></use>
                                </mask>
                                <use id="形状结合" fill="url(#linearGradient-4)" fill-rule="nonzero" transform="translate(9.6225, 9.5449) rotate(-18) translate(-9.6225, -9.5449)" xlink:href="#path-5"></use>
                            </g>
                            <g id="花" stroke="none" stroke-width="1" fill="none" fill-rule="evenodd" transform="translate(13.6023, 13.5043) rotate(-225) translate(-13.6023, -13.5043)translate(3.9799, 3.9595)">
                                <mask id="mask-9" fill="white">
                                    <use xlink:href="#path-8"></use>
                                </mask>
                                <use id="形状结合" fill="url(#radialGradient-7)" fill-rule="nonzero" transform="translate(9.6225, 9.5449) rotate(-18) translate(-9.6225, -9.5449)" xlink:href="#path-8"></use>
                            </g>
                        </g>
                    </g>
                </g>
            </g>
        </g>
    </g>
</svg>