<?xml version="1.0" standalone="no"?><!DOCTYPE svg PUBLIC "-//W3C//DTD SVG 1.1//EN" "http://www.w3.org/Graphics/SVG/1.1/DTD/svg11.dtd"><svg class="icon" width="128px" height="128.00px" viewBox="0 0 1024 1024" version="1.1" xmlns="http://www.w3.org/2000/svg"><path d="M102.4 238.933A136.533 136.533 0 0 1 238.933 102.4h102.4a136.533 136.533 0 0 1 136.534 136.533v102.4a136.533 136.533 0 0 1-136.534 136.534h-102.4A136.533 136.533 0 0 1 102.4 341.333v-102.4z m0 443.734a136.533 136.533 0 0 1 136.533-136.534h102.4a136.533 136.533 0 0 1 136.534 136.534v102.4A136.533 136.533 0 0 1 341.333 921.6h-102.4A136.533 136.533 0 0 1 102.4 785.067v-102.4z m580.267-136.534a136.533 136.533 0 0 0-136.534 136.534v102.4A136.533 136.533 0 0 0 682.667 921.6h102.4A136.533 136.533 0 0 0 921.6 785.067v-102.4a136.533 136.533 0 0 0-136.533-136.534h-102.4z" fill="#FF7744" /><path d="M546.133 238.933A136.533 136.533 0 0 1 682.667 102.4h102.4A136.533 136.533 0 0 1 921.6 238.933v102.4a136.533 136.533 0 0 1-136.533 136.534h-102.4a136.533 136.533 0 0 1-136.534-136.534v-102.4z" fill="#FFAA44" /></svg>