<?xml version="1.0" encoding="UTF-8"?>
<svg width="80px" height="80px" viewBox="0 0 80 80" version="1.1" xmlns="http://www.w3.org/2000/svg" xmlns:xlink="http://www.w3.org/1999/xlink">
    <title>画框</title>
    <g id="画框" stroke="none" fill="none">
        <path d="M16.7391933,59.0732644 C21.221653,67.3473306 29.9805034,72.9663616 40.0517488,72.9663616 M47.622273,71.8690595 C58.5668629,68.6116808 66.5477733,58.4730297 66.5477733,46.4703371 C66.5477733,33.7602428 57.5984002,23.1403866 45.6572954,20.5684099" id="形状" stroke="#979797" stroke-width="2" stroke-linejoin="round" transform="translate(41.6435, 46.7674) rotate(56) translate(-41.6435, -46.7674)"></path>
        <polyline id="路径备份-4" stroke="#979797" stroke-width="2" stroke-linejoin="round" transform="translate(41.6827, 30.5796) rotate(2) translate(-41.6827, -30.5796)" points="65.9898712 34.9252213 57.448332 26.2339657 24.5220499 26.6660136 17.3756226 34.1759745"></polyline>
        <path d="M18.0893953,33.1715692 C25.1981883,34.9581033 29.7956866,33.4073077 31.8818903,28.5191824 C34.384964,32.3323668 37.7022245,34.238959 41.8336717,34.238959 C48.0308427,34.238959 50.7436134,28.8065583 51.0116409,28.238959 C54.1462075,33.3752845 58.988738,35.187503 65.5392322,33.6756146" id="路径-16备份" stroke="#979797" stroke-width="2" stroke-linejoin="round" transform="translate(41.8143, 31.239) rotate(2) translate(-41.8143, -31.239)"></path>
        <path d="M29.5038784,69.4764227 C27.6128849,66.4544777 26.2976015,59.6324522 29.2258944,50.1939384 C30.1483974,60.7691836 33.2463406,67.3897129 38.5197239,70.0555265 C46.4297988,74.0542469 50.9367199,67.0534023 52.1258272,56.3247498 C52.7878031,62.7069083 52.5946577,66.9368167 51.5463909,69.0144751" id="路径-17备份" stroke="#979797" stroke-width="2" stroke-linejoin="round" transform="translate(40.0102, 60.6939) rotate(2) translate(-40.0102, -60.6939)"></path>
        <polyline id="路径-20备份" stroke="#979797" stroke-width="2" stroke-linejoin="round" transform="translate(58.7677, 20.1616) rotate(12) translate(-58.7677, -20.1616)" points="49.8139764 28.8535431 55.7819313 12.225738 67.7215156 11.4697001"></polyline>
        <circle id="椭圆形备份-16" stroke="#979797" stroke-width="2" stroke-linejoin="round" transform="translate(36.8883, 11.6677) rotate(-16) translate(-36.8883, -11.6677)" cx="36.8882539" cy="11.6676806" r="4"></circle>
        <circle id="椭圆形备份-17" stroke="#979797" stroke-width="2" stroke-linejoin="round" transform="translate(68.4145, 65.2964) rotate(-16) translate(-68.4145, -65.2964)" cx="68.4144558" cy="65.296432" r="2"></circle>
        <path d="M16.0345407,46.4193118 L15.921223,70.1143849 L16.0345407,57.4193118 C10.2569747,57.4193118 6.75697469,57.4193118 5.53454072,57.4193118 C5.37911328,53.6833935 8.55093609,46.4193118 16.0345407,46.4193118 C23.5181453,46.4193118 26.6942996,53.5228129 26.5345407,57.4193118 C24.6482927,57.4272067 22.981626,57.4272067 21.5345407,57.4193118 C21.5345407,51.3441795 19.0721068,46.4193118 16.0345407,46.4193118 C12.9969746,46.4193118 10.5345407,51.3441795 10.5345407,57.4193118 C12.9399351,57.4193118 14.7732684,57.4193118 16.0345407,57.4193118 C17.1703522,57.4193118 18.9326444,57.4193118 21.3214175,57.4193118" id="路径备份-3" stroke="#979797" stroke-width="2" stroke-linejoin="round" transform="translate(16.0347, 58.2668) rotate(-161) translate(-16.0347, -58.2668)"></path>
        <g id="编组" stroke-width="1" fill-rule="evenodd" transform="translate(17.2929, 20) rotate(-45) translate(-17.2929, -20)translate(12.7929, 15.5)" stroke="#979797" stroke-linejoin="round">
            <line x1="0" y1="4.5" x2="9" y2="4.5" id="线条" stroke-width="2"></line>
            <line x1="4.5" y1="9" x2="4.5" y2="-2.49800181e-16" id="线条备份" stroke-width="2"></line>
        </g>
    </g>
</svg>