<?xml version="1.0" standalone="no"?><!DOCTYPE svg PUBLIC "-//W3C//DTD SVG 1.1//EN" "http://www.w3.org/Graphics/SVG/1.1/DTD/svg11.dtd"><svg class="icon" width="128px" height="128.00px" viewBox="0 0 1024 1024" version="1.1" xmlns="http://www.w3.org/2000/svg"><path d="M512 0c282.7776 0 512 229.2224 512 512s-229.2224 512-512 512S0 794.7776 0 512 229.2224 0 512 0z m102.4 716.8H409.6a51.2 51.2 0 0 0 0 102.4h204.8a51.2 51.2 0 0 0 0-102.4z m51.2-204.8H358.4a51.2 51.2 0 0 0 0 102.4h307.2a51.2 51.2 0 0 0 0-102.4z m51.2-204.8H307.2a51.2 51.2 0 1 0 0 102.4h409.6a51.2 51.2 0 0 0 0-102.4z" fill="#0080FF" /></svg>